<?xml version="1.0" encoding="UTF-8"?>
<svg version="1.1" xmlns="http://www.w3.org/2000/svg" width="200" height="200">
<path d="M0 0 C66 0 132 0 200 0 C200 66 200 132 200 200 C134 200 68 200 0 200 C0 134 0 68 0 0 Z " fill="#FCFCFC" transform="translate(0,0)"/>
<path d="M0 0 C3.57661272 2.78406786 6.81973477 5.77413957 10 9 C10.57492188 9.56460938 11.14984375 10.12921875 11.7421875 10.7109375 C21.56412733 21.14356789 25.63163098 35.68916871 25.21484375 49.7265625 C23.78216779 71.55533447 14.97502874 91.9112719 -1 107 C-8.00209186 113.03041387 -15.28483903 116.99241504 -24 120 C-24.85207031 120.3196875 -25.70414062 120.639375 -26.58203125 120.96875 C-40.39924685 125.33846972 -59.82854751 125.49000348 -73 119 C-82.92558297 113.43095842 -90.35937682 105.9022963 -94 95 C-97.82118517 78.17834453 -95.31770433 60.34449838 -86.625 45.5234375 C-77.59056624 31.49400431 -65.87167068 22.29055689 -50 17 C-46.48423579 16.71731961 -42.96337015 16.72231768 -39.4375 16.6875 C-38.48552734 16.65849609 -37.53355469 16.62949219 -36.55273438 16.59960938 C-26.72234821 16.51261481 -18.88090548 19.31199203 -11.6875 26.0703125 C-9.05355915 29.08227264 -7.46405205 32.30363096 -6 36 C-5.64550781 36.72316406 -5.29101562 37.44632813 -4.92578125 38.19140625 C-0.56620241 51.41730155 -4.59789924 66.92435526 -10.45703125 79.00390625 C-13.30382397 84.04400629 -16.43881448 88.40927949 -21 92 C-23.62671187 91.94162863 -25.11106326 91.88893674 -27 90 C-27.27602717 84.18974883 -26.60363784 79.05738574 -25.3203125 73.40625 C-25.14748749 72.61528931 -24.97466248 71.82432861 -24.79660034 71.00939941 C-24.2471772 68.50447728 -23.68617164 66.00231315 -23.125 63.5 C-22.75577149 61.82177699 -22.38727564 60.1433926 -22.01953125 58.46484375 C-20.43867143 51.28406102 -18.80799311 44.12745256 -17 37 C-19.29240007 37.05985379 -21.58406206 37.14859027 -23.875 37.25 C-25.15117188 37.29640625 -26.42734375 37.3428125 -27.7421875 37.390625 C-31.09188105 37.62555056 -31.09188105 37.62555056 -32.4453125 40.046875 C-32.71988281 41.01367188 -32.71988281 41.01367188 -33 42 C-33.54269531 41.57847656 -34.08539063 41.15695313 -34.64453125 40.72265625 C-35.35996094 40.17480469 -36.07539062 39.62695312 -36.8125 39.0625 C-37.52019531 38.51722656 -38.22789063 37.97195312 -38.95703125 37.41015625 C-43.79332987 34.07190807 -49.36066718 34.36353987 -55 35 C-64.97330168 38.12945243 -71.53668903 44.83161816 -76.30419922 53.88354492 C-82.24171471 65.61914042 -85.40663132 77.18318293 -82.16015625 90.42578125 C-80.10563997 95.98058453 -77.66224523 100.81354005 -72.56640625 104.0625 C-66.08217802 106.43116785 -58.50997123 106.55621653 -52.171875 103.74609375 C-49.95864485 102.2840427 -47.99288864 100.74643332 -46 99 C-44.67252749 97.99223291 -43.34078768 96.98998292 -42 96 C-41.08854167 97.7578125 -40.17708333 99.515625 -39.265625 101.2734375 C-37.68292517 103.43255271 -36.51367335 104.08957061 -34 105 C-25.47438657 106.18758545 -19.18884792 104.5662497 -12 100 C-11.113125 99.443125 -10.22625 98.88625 -9.3125 98.3125 C3.03392629 85.96607371 10.30715931 67.15815613 10.4375 49.8125 C10.2057335 37.20924958 7.12262989 25.87966765 -2.17578125 16.8984375 C-4.3793449 15.10970707 -6.60706509 13.52429536 -9 12 C-9.62519531 11.60167969 -10.25039062 11.20335938 -10.89453125 10.79296875 C-23.94809301 3.45549298 -42.24901322 2.5530142 -56.54345703 6.48974609 C-76.38553245 12.73268204 -91.49990864 25.24823876 -101.27734375 43.53515625 C-103.61647175 48.23993297 -105.52419275 52.95887621 -107 58 C-107.35578125 59.1653125 -107.7115625 60.330625 -108.078125 61.53125 C-112.04853899 77.82179364 -110.2526984 97.4088925 -101.8125 111.875 C-93.34223371 124.02876445 -80.27006553 131.47903484 -66 135 C-62.67896379 135.57804571 -59.36340642 135.79615719 -56 136 C-54.98164062 136.07734375 -53.96328125 136.1546875 -52.9140625 136.234375 C-29.75083953 137.20625848 -5.07636148 125.96494038 12.02856445 110.73339844 C14.05746067 108.860364 16.04340464 106.9483047 18 105 C18.66 105.33 19.32 105.66 20 106 C4.34622294 126.94941654 -12.29055923 144.76577982 -39 150 C-43.42616662 150.41915232 -47.80617192 150.47750611 -52.25 150.4375 C-53.44004639 150.42920166 -54.63009277 150.42090332 -55.85620117 150.41235352 C-75.59520119 150.03381949 -92.84416576 143.03256137 -107 129 C-122.95559708 110.65504562 -125.30112051 89.39109394 -124 66 C-121.49807943 43.83521918 -108.36649649 21.99608374 -91.375 8.02832031 C-65.99587862 -11.93638515 -28.21444067 -18.11495339 0 0 Z " fill="#060606" transform="translate(148,30)"/>
<path d="M0 0 C2.92937654 1.81310142 5.43647949 3.87295899 7 7 C8.12603422 17.63298029 6.14795961 27.96554824 -0.4375 36.625 C-4.11139304 40.0300716 -7.14806044 41.74072846 -12.125 42.4375 C-15.69326188 41.89450363 -16.78766041 40.78590911 -19 38 C-22.05966752 31.88066496 -20.52082035 21.40111606 -18.5 15.125 C-15.15713274 7.09249883 -9.38321717 -1.0826789 0 0 Z " fill="#040404" transform="translate(102,79)"/>
<path d="M0 0 C0.66 0.33 1.32 0.66 2 1 C0.43905326 3.0428701 -1.12370929 5.08430858 -2.6875 7.125 C-3.12255859 7.69476563 -3.55761719 8.26453125 -4.00585938 8.8515625 C-6.9165585 12.64625172 -9.91648254 16.34422615 -13 20 C-14.32 19.34 -15.64 18.68 -17 18 C-17.66 18.66 -18.32 19.32 -19 20 C-19.99 19.01 -20.98 18.02 -22 17 C-21.24976563 16.52691406 -20.49953125 16.05382812 -19.7265625 15.56640625 C-12.52632954 10.91436657 -6.20771949 5.93304164 0 0 Z " fill="#0F0F0F" transform="translate(166,135)"/>
<path d="M0 0 C0.66 0.33 1.32 0.66 2 1 C-2.95 7.435 -2.95 7.435 -8 14 C-8.99 13.34 -9.98 12.68 -11 12 C-9.49650623 8.33213607 -7.36271208 6.31089607 -4.375 3.75 C-3.14910156 2.69039062 -3.14910156 2.69039062 -1.8984375 1.609375 C-1.27195313 1.07828125 -0.64546875 0.5471875 0 0 Z " fill="#222222" transform="translate(166,135)"/>
<path d="M0 0 C0.66 0.99 1.32 1.98 2 3 C1.34 3 0.68 3 0 3 C0 3.66 0 4.32 0 5 C-1.98 5.99 -1.98 5.99 -4 7 C-2.79618552 4.50638429 -1.54571278 2.31856917 0 0 Z M-8 9 C-7.34 9.33 -6.68 9.66 -6 10 C-8.25 12.5625 -8.25 12.5625 -11 15 C-13.3125 14.8125 -13.3125 14.8125 -15 14 C-14.030625 13.360625 -13.06125 12.72125 -12.0625 12.0625 C-9.23963731 10.3034741 -9.23963731 10.3034741 -8 9 Z " fill="#222222" transform="translate(146,119)"/>
<path d="M0 0 C4 4.625 4 4.625 4 8 C3.01 8 2.02 8 1 8 C1 7.34 1 6.68 1 6 C0.01 5.67 -0.98 5.34 -2 5 C-1.34 3.35 -0.68 1.7 0 0 Z " fill="#151515" transform="translate(67,125)"/>
<path d="M0 0 C1.65 1.32 3.3 2.64 5 4 C3.02 4.99 3.02 4.99 1 6 C0.01 4.68 -0.98 3.36 -2 2 C-1.34 2 -0.68 2 0 2 C0 1.34 0 0.68 0 0 Z " fill="#101010" transform="translate(66,138)"/>
</svg>
